<?xml version="1.0" encoding="UTF-8"?>
<svg id="Layer_1" data-name="Layer 1" xmlns="http://www.w3.org/2000/svg" viewBox="0 0 500 133.57">
  <defs>
    <style>
      .cls-1 {
        fill: #634933;
      }

      .cls-2 {
        fill: #dac1ac;
      }
    </style>
  </defs>
  <g>
    <path class="cls-2" d="m73.83,22.52c-.86,1.3-2.21,3.24-4.03,5.83-3.84-1.68-7.27-2.52-10.3-2.52-3.98,0-5.98,1.49-5.98,4.46,0,1.34.46,2.4,1.37,3.17.91.77,2.81,1.7,5.69,2.81,5.18,2.02,8.92,4.2,11.2,6.55,2.28,2.35,3.42,5.18,3.42,8.5,0,4.66-1.75,8.26-5.26,10.8-2.88,2.06-6.46,3.1-10.73,3.1-5.04,0-10.42-1.82-16.13-5.47l4.18-5.83c2.78,1.87,6.36,2.81,10.73,2.81,4.94,0,7.42-1.99,7.42-5.98,0-2.59-2.66-4.8-7.99-6.62-8.59-2.88-12.89-7.49-12.89-13.82,0-3.84,1.44-6.89,4.32-9.14,2.69-2.16,6.26-3.24,10.73-3.24,5.09,0,9.84,1.54,14.26,4.61Z"/>
    <path class="cls-2" d="m103.78,38.93h-9.36v16.2c0,2.4.79,3.6,2.38,3.6,1.44,0,3.24-.62,5.4-1.87l3.02,4.61c-3.41,2.69-7.18,4.03-11.3,4.03-5.76,0-8.64-3.17-8.64-9.5v-17.06h-4.54v-7.27h4.61v-5.83c2.4-1.3,5.45-2.9,9.14-4.82v10.66h9.29v7.27Z"/>
    <path class="cls-2" d="m138.27,64.35h-7.27l-.72-3.1c-3.17,2.64-6.38,3.96-9.65,3.96-7.25,0-10.87-3.53-10.87-10.58,0-3.5,1.51-6.24,4.54-8.21,3.07-2.02,7.61-3.02,13.61-3.02h1.51v-.14c0-2.06-.43-3.48-1.3-4.25-.86-.77-2.42-1.15-4.68-1.15-3.17,0-6.07,1.01-8.71,3.02-.87-1.58-1.68-3.14-2.45-4.68,2.74-2.11,5.12-3.54,7.16-4.28s4.48-1.12,7.31-1.12c7.68,0,11.52,4.8,11.52,14.4v19.15Zm-9.14-15.41h-1.08c-2.74,0-4.94.48-6.62,1.44-1.68.96-2.52,2.23-2.52,3.82,0,2.98,1.29,4.46,3.89,4.46,1.58,0,2.98-.46,4.18-1.37,1.2-.91,1.92-2.06,2.16-3.46v-4.9Z"/>
    <path class="cls-2" d="m155.76,31.66l.86,2.88c.48-1.01,1.4-1.88,2.77-2.63,1.37-.74,2.77-1.12,4.21-1.12,4.32,0,7.54,2.04,9.65,6.12l-7.63,4.18c-1.58-1.82-3.26-2.74-5.04-2.74-1.63,0-2.83.84-3.6,2.52v23.47h-8.93V31.66h7.7Z"/>
    <path class="cls-2" d="m178.95,64.28V18.84c3.65-.62,8.06-.94,13.25-.94,6,0,10.46,1.42,13.39,4.25,2.3,2.26,3.46,5.23,3.46,8.93,0,2.26-.94,4.31-2.81,6.16s-3.96,2.77-6.26,2.77v.07c3.17.34,5.67,1.56,7.52,3.67,1.85,2.11,2.77,4.78,2.77,7.99,0,4.51-1.9,7.97-5.69,10.37-3.31,2.06-7.73,3.1-13.25,3.1-4.8,0-8.93-.31-12.38-.94Zm9.43-38.3v10.51h5.33c4.03,0,6.05-1.7,6.05-5.11,0-3.79-2.45-5.74-7.34-5.83h-.22c-1.2,0-2.47.14-3.82.43Zm0,18.07v13.18c1.2.38,2.9.58,5.11.58,4.65,0,6.98-2.04,6.98-6.12,0-5.09-2.4-7.63-7.2-7.63h-4.9Z"/>
    <path class="cls-2" d="m248.28,50.96h-22.46c.19,2.21,1.09,4.04,2.7,5.51,1.61,1.46,3.52,2.2,5.72,2.2,3.12,0,6.38-.96,9.79-2.88l2.3,4.82c-3.46,3.07-7.78,4.61-12.96,4.61-5.57,0-9.91-1.58-13.03-4.75-2.98-2.98-4.46-7.08-4.46-12.31s1.68-9.38,5.04-12.74c3.02-3.07,6.86-4.61,11.52-4.61,5.18,0,9.22,1.75,12.1,5.26,2.5,2.98,3.74,6.84,3.74,11.59v3.31Zm-22.97-6.7h13.9c-.24-4.7-2.52-7.06-6.84-7.06s-6.53,2.35-7.06,7.06Z"/>
    <path class="cls-2" d="m282.26,64.35h-7.27l-.72-3.1c-3.17,2.64-6.38,3.96-9.65,3.96-7.25,0-10.87-3.53-10.87-10.58,0-3.5,1.51-6.24,4.54-8.21,3.07-2.02,7.61-3.02,13.61-3.02h1.51v-.14c0-2.06-.43-3.48-1.3-4.25-.86-.77-2.42-1.15-4.68-1.15-3.17,0-6.07,1.01-8.71,3.02-.87-1.58-1.68-3.14-2.45-4.68,2.74-2.11,5.12-3.54,7.16-4.28s4.48-1.12,7.31-1.12c7.68,0,11.52,4.8,11.52,14.4v19.15Zm-9.14-15.41h-1.08c-2.74,0-4.94.48-6.62,1.44-1.68.96-2.52,2.23-2.52,3.82,0,2.98,1.29,4.46,3.89,4.46,1.58,0,2.98-.46,4.18-1.37,1.2-.91,1.92-2.06,2.16-3.46v-4.9Z"/>
    <path class="cls-2" d="m300.84,34.83c.96-1.1,2.4-2.05,4.32-2.84s3.74-1.19,5.47-1.19c4.13,0,7.12,1.13,8.96,3.38,1.85,2.26,2.77,5.9,2.77,10.94v19.22h-9.14v-18.86c0-4.7-2.09-7.06-6.26-7.06-1.06,0-2.18.23-3.38.68-1.2.46-2.02.97-2.45,1.55v23.69h-9.07V31.66h7.7c.24,1.25.48,2.3.72,3.17h.36Z"/>
    <path class="cls-2" d="m350.88,39.58c-2.35-1.54-5.04-2.3-8.06-2.3-2.3,0-3.46.98-3.46,2.95,0,1.83,1.56,3.12,4.68,3.89,3.89.96,6.53,2.04,7.92,3.24,2.02,1.73,3.02,4.32,3.02,7.78,0,3.07-1.09,5.52-3.28,7.34-2.18,1.83-5.12,2.74-8.82,2.74-5.23,0-9.65-1.49-13.25-4.46l3.31-5.04c2.5,1.97,5.5,2.95,9,2.95,1.39,0,2.52-.34,3.38-1.01.86-.67,1.29-1.56,1.29-2.66,0-2.02-1.7-3.34-5.11-3.96-7.3-1.39-10.94-4.94-10.94-10.66,0-2.74,1.12-5.02,3.35-6.84,2.23-1.82,5.03-2.74,8.39-2.74,4.56,0,8.52,1.32,11.88,3.96l-3.31,4.82Z"/>
  </g>
  <ellipse class="cls-2" cx="414.47" cy="64.35" rx="36.67" ry="50.85"/>
  <g>
    <path class="cls-2" d="m420.09,14.09c-5.34,8.83-8.55,20.22-8.55,32.64,0,5.36.6,10.52,1.71,15.37.3,1.33.64,2.63,1.02,3.91.2.67.4,1.32.62,1.97h0c1.11,4.85,1.71,10.02,1.71,15.38,0,11.78-2.88,22.62-7.74,31.24"/>
    <path class="cls-1" d="m420.09,14.09c-5.69,15.35-6.79,32.12-2.9,47.96.39,1.47.84,3.27,1.32,4.71,0,0,.21.67.21.67v.55s-.1-.85-.1-.85c.46,2.07.79,4.16,1.03,6.26,1.58,14.34-1.51,29.91-10.78,41.21,5.01-14.82,5.87-30.97,2.22-46.16,0,0,0-.46,0-.47,0,0,.2,1.22.2,1.22-2.35-6.98-3.44-14.39-3.22-21.74.42-11.95,4.03-24.28,12.03-33.37h0Z"/>
  </g>
  <g>
    <path class="cls-2" d="m253.28,108.33c-2.27,2.02-5.01,3.02-8.21,3.02-4.16,0-7.46-1.6-9.89-4.8-2.14-2.78-3.22-6.34-3.22-10.66,0-4.74,1.25-8.66,3.74-11.76,2.34-2.88,5.31-4.32,8.93-4.32,3.23,0,5.98.91,8.26,2.74l-1.15,1.49c-2.08-1.25-4.3-1.87-6.67-1.87-3.2,0-5.73,1.31-7.58,3.94-1.76,2.43-2.64,5.7-2.64,9.79,0,4.42,1.15,7.82,3.46,10.22,1.89,1.92,4.27,2.88,7.15,2.88,2.59,0,4.83-.75,6.72-2.26l1.1,1.58Z"/>
    <path class="cls-2" d="m267.15,88.41c3.29,0,5.94,1.26,7.92,3.79,1.63,2.14,2.45,4.72,2.45,7.73,0,3.46-1.06,6.27-3.17,8.45-1.89,1.98-4.29,2.98-7.2,2.98-3.33,0-5.97-1.26-7.92-3.79-1.63-2.11-2.45-4.66-2.45-7.63,0-3.49,1.06-6.34,3.17-8.54,1.89-1.98,4.29-2.98,7.2-2.98Zm0,2.02c-2.53,0-4.53,1.04-6,3.12-1.22,1.73-1.82,3.86-1.82,6.38,0,2.85.8,5.17,2.4,6.96,1.44,1.63,3.25,2.45,5.42,2.45,2.5,0,4.48-1.04,5.95-3.12,1.25-1.73,1.87-3.82,1.87-6.29,0-2.91-.79-5.26-2.35-7.06-1.44-1.63-3.26-2.45-5.47-2.45Z"/>
    <path class="cls-2" d="m299.79,90.86h-12.72v19.92h-2.26v-19.92h-2.98v-1.87h2.98v-3.26c0-1.76.47-3.18,1.42-4.27.94-1.09,2.17-1.63,3.67-1.63s2.86.45,4.18,1.34l-.82,1.34c-1.18-.48-2.16-.72-2.93-.72-2.18,0-3.26,1.31-3.26,3.94v3.26h12.72v-3.26c0-1.76.47-3.18,1.42-4.27.94-1.09,2.17-1.63,3.67-1.63s2.86.45,4.18,1.34l-.82,1.34c-1.18-.48-2.16-.72-2.93-.72-2.18,0-3.26,1.31-3.26,3.94v3.26h5.09v1.87h-5.09v19.92h-2.26v-19.92Z"/>
    <path class="cls-2" d="m329.41,100.7h-15.74c.06,2.66.99,4.8,2.78,6.43,1.66,1.44,3.76,2.16,6.29,2.16,2.14,0,4.02-.58,5.62-1.73l.91,1.49c-1.92,1.54-4.35,2.3-7.3,2.3-3.36,0-6.06-1.15-8.11-3.46-1.82-2.08-2.74-4.72-2.74-7.92,0-3.39.98-6.22,2.93-8.5,1.79-2.05,3.98-3.07,6.58-3.07,3.1,0,5.44,1.36,7.01,4.08,1.18,2.05,1.78,4.56,1.78,7.54v.67Zm-15.7-1.92h13.3c-.06-2.66-.66-4.71-1.78-6.17-1.12-1.46-2.67-2.18-4.66-2.18-1.86,0-3.42.78-4.7,2.33-1.28,1.55-2,3.56-2.16,6.02Z"/>
    <path class="cls-2" d="m352.3,100.7h-15.74c.06,2.66.99,4.8,2.78,6.43,1.66,1.44,3.76,2.16,6.29,2.16,2.14,0,4.02-.58,5.62-1.73l.91,1.49c-1.92,1.54-4.35,2.3-7.3,2.3-3.36,0-6.06-1.15-8.11-3.46-1.82-2.08-2.74-4.72-2.74-7.92,0-3.39.98-6.22,2.93-8.5,1.79-2.05,3.98-3.07,6.58-3.07,3.1,0,5.44,1.36,7.01,4.08,1.18,2.05,1.78,4.56,1.78,7.54v.67Zm-15.7-1.92h13.3c-.06-2.66-.66-4.71-1.78-6.17-1.12-1.46-2.67-2.18-4.66-2.18-1.86,0-3.42.78-4.7,2.33-1.28,1.55-2,3.56-2.16,6.02Z"/>
  </g>
</svg>