<?xml version="1.0" encoding="UTF-8"?>
<svg id="Layer_1" data-name="Layer 1" xmlns="http://www.w3.org/2000/svg" viewBox="0 0 500 500">
  <defs>
    <style>
      .cls-1 {
        fill: #634933;
      }

      .cls-2 {
        fill: #dac1ac;
      }
    </style>
  </defs>
  <circle class="cls-2" cx="249.67" cy="250" r="198"/>
  <ellipse class="cls-1" cx="250.17" cy="197" rx="81.5" ry="113"/>
  <path class="cls-2" d="m262.7,85.26c-12.63,34.05-15.06,71.22-6.43,106.36.86,3.26,1.86,7.24,2.92,10.44,0,0,.46,1.49.46,1.49v1.22s-.23-1.89-.23-1.88c1.01,4.59,1.76,9.22,2.29,13.87,3.5,31.79-3.35,66.32-23.91,91.38,11.1-32.86,13.02-68.67,4.92-102.35,0,0-.01-1.02-.01-1.03,0,0,.45,2.71.45,2.71-5.21-15.47-7.62-31.92-7.13-48.21.93-26.51,8.95-53.83,26.67-74h0Z"/>
  <g>
    <path class="cls-1" d="m172.86,330.44c-.85.54-2.16,1.33-3.92,2.38-1.83-2.01-3.65-3.41-5.44-4.21-2.36-1.05-3.93-.7-4.72,1.06-.35.79-.36,1.54-.02,2.23.34.69,1.22,1.75,2.63,3.16,2.54,2.56,4.18,4.84,4.91,6.83.73,1.99.66,3.97-.21,5.92-1.22,2.75-3.21,4.42-5.96,4.99-2.25.46-4.64.13-7.17-1-2.99-1.33-5.69-3.83-8.12-7.49l4.01-2.34c1.16,1.84,3.03,3.34,5.62,4.49,2.93,1.3,4.92.78,5.97-1.57.68-1.53-.32-3.54-2.99-6.02-4.33-3.97-5.67-7.83-4-11.57,1.01-2.27,2.67-3.69,4.97-4.26,2.16-.57,4.57-.26,7.21.92,3.02,1.34,5.43,3.51,7.24,6.49Z"/>
    <path class="cls-1" d="m187.97,346.67l-5.78-1.88-3.24,9.97c-.48,1.48-.23,2.37.75,2.69.89.29,2.12.27,3.71-.07l.94,3.44c-2.64.97-5.23,1.04-7.78.21-3.55-1.16-4.7-3.68-3.43-7.58l3.41-10.5-2.8-.91,1.46-4.47,2.84.92,1.17-3.59c1.74-.32,3.94-.69,6.61-1.13l-2.13,6.56,5.73,1.86-1.45,4.47Z"/>
    <path class="cls-1" d="m207.27,368.07l-4.61-1-.03-2.06c-2.37,1.23-4.59,1.63-6.66,1.18-4.6-1-6.41-3.73-5.44-8.19.48-2.21,1.81-3.74,4-4.56,2.22-.85,5.24-.87,9.04-.04l.96.21.02-.09c.28-1.3.2-2.26-.24-2.86-.44-.6-1.38-1.06-2.81-1.37-2.01-.44-3.99-.2-5.94.71-.33-1.12-.63-2.22-.91-3.29,2.02-.96,3.73-1.53,5.13-1.72s2.99-.09,4.79.3c4.87,1.06,6.65,4.62,5.33,10.69l-2.62,12.11Zm-3.69-11l-.68-.15c-1.74-.38-3.2-.38-4.4,0-1.2.38-1.9,1.06-2.12,2.07-.41,1.88.21,3,1.85,3.36,1,.22,1.95.12,2.84-.29.89-.41,1.5-1.04,1.84-1.89l.67-3.1Z"/>
    <path class="cls-1" d="m223.58,348.98l.35,1.91c.38-.61,1.04-1.11,1.98-1.49.94-.38,1.87-.52,2.8-.42,2.79.31,4.71,1.85,5.78,4.63l-5.22,2.14c-.89-1.29-1.91-1.99-3.05-2.12-1.05-.12-1.89.34-2.5,1.36l-1.68,15.09-5.76-.64,2.34-21.01,4.97.55Z"/>
    <path class="cls-1" d="m238.57,371.43l.47-29.38c2.37-.36,5.24-.52,8.61-.47,3.89.06,6.77,1.03,8.64,2.89,1.47,1.48,2.19,3.42,2.15,5.81-.02,1.46-.65,2.78-1.89,3.95-1.23,1.18-2.6,1.75-4.09,1.73v.05c2.05.25,3.67,1.07,4.84,2.45,1.18,1.39,1.75,3.12,1.71,5.2-.05,2.92-1.31,5.13-3.8,6.65-2.17,1.3-5.05,1.92-8.63,1.86-3.11-.05-5.79-.3-8.02-.74Zm6.33-12.99l-.14,8.52c.77.26,1.88.4,3.31.43,3.02.05,4.55-1.25,4.59-3.88.05-3.29-1.48-4.96-4.59-5.01l-3.18-.05Zm.19-11.69l-.11,6.8,3.46.06c2.62.04,3.94-1.04,3.98-3.24.04-2.45-1.53-3.74-4.7-3.85h-.14c-.78-.02-1.61.06-2.48.24Z"/>
    <path class="cls-1" d="m286.13,360.23l-14.48,1.68c.29,1.4,1,2.52,2.15,3.34,1.14.82,2.43,1.15,3.85.98,2.01-.23,4.04-1.09,6.1-2.58l1.84,2.93c-2,2.23-4.67,3.54-8.01,3.93-3.59.42-6.51-.28-8.75-2.08-2.14-1.69-3.41-4.22-3.79-7.58-.38-3.3.38-6.16,2.3-8.57,1.72-2.2,4.08-3.47,7.08-3.82,3.34-.39,6.07.44,8.19,2.47,1.83,1.73,2.92,4.12,3.28,7.17l.25,2.13Zm-15.3-2.59l8.96-1.04c-.5-3-2.15-4.35-4.93-4.02-2.69.31-4.03,2-4.02,5.06Z"/>
    <path class="cls-1" d="m311.66,363.44l-4.59,1.08-.91-1.84c-1.61,2.13-3.45,3.44-5.51,3.92-4.58,1.07-7.39-.61-8.43-5.06-.52-2.21.03-4.15,1.65-5.84,1.64-1.72,4.36-3.03,8.15-3.92l.96-.22-.02-.09c-.3-1.3-.79-2.13-1.45-2.48-.66-.36-1.7-.37-3.13-.03-2,.47-3.69,1.53-5.06,3.19-.78-.87-1.53-1.73-2.24-2.58,1.42-1.73,2.71-2.99,3.89-3.76,1.18-.77,2.66-1.37,4.45-1.79,4.85-1.14,7.99,1.32,9.4,7.36l2.83,12.06Zm-8.05-8.35l-.68.16c-1.73.41-3.05,1.03-3.97,1.89-.92.85-1.26,1.78-1.03,2.78.44,1.87,1.48,2.62,3.12,2.24,1-.23,1.81-.73,2.44-1.48.62-.75.91-1.58.85-2.5l-.72-3.08Z"/>
    <path class="cls-1" d="m319.61,340.91c.34-.88,1.01-1.78,2.01-2.69,1-.91,2.02-1.55,3.08-1.93,2.52-.91,4.59-.89,6.21.07,1.62.96,2.99,2.98,4.11,6.04l4.25,11.69-5.58,2.03-4.17-11.47c-1.04-2.86-2.83-3.83-5.38-2.9-.64.23-1.28.62-1.91,1.17-.63.54-1.01,1.04-1.15,1.48l5.23,14.4-5.53,2.01-7.22-19.87,4.7-1.71c.42.71.8,1.29,1.14,1.77l.22-.08Z"/>
    <path class="cls-1" d="m351.56,330.51c-1.81-.22-3.59.11-5.35.98-1.34.66-1.73,1.56-1.17,2.7.52,1.06,1.8,1.36,3.84.91,2.54-.56,4.38-.69,5.54-.4,1.67.42,3,1.64,3.99,3.64.88,1.78.94,3.52.2,5.2-.75,1.69-2.2,3.06-4.35,4.12-3.04,1.5-6.04,1.91-8.99,1.21l.48-3.87c2.02.43,4.04.13,6.08-.87.81-.4,1.37-.92,1.68-1.56.31-.64.31-1.28,0-1.92-.58-1.17-1.95-1.45-4.11-.83-4.64,1.29-7.78.28-9.42-3.04-.78-1.59-.79-3.23,0-4.93.78-1.7,2.14-3.03,4.1-4,2.65-1.31,5.34-1.68,8.05-1.11l-.55,3.75Z"/>
  </g>
  <g>
    <path class="cls-1" d="m210.43,410.96c-1.94,1.12-4.06,1.44-6.34.94-2.97-.65-5.06-2.33-6.29-5.06-1.08-2.37-1.28-5.14-.59-8.31.76-3.47,2.27-6.15,4.55-8.03,2.13-1.75,4.48-2.34,7.06-1.78,2.3.5,4.12,1.6,5.45,3.29l-1.06.91c-1.28-1.24-2.77-2.04-4.46-2.41-2.28-.5-4.29.07-6.04,1.7-1.64,1.51-2.79,3.76-3.45,6.76-.71,3.24-.43,5.91.83,8.03,1.04,1.7,2.59,2.78,4.64,3.22,1.85.4,3.57.2,5.15-.61l.53,1.33Z"/>
    <path class="cls-1" d="m226.64,398.11c2.39.27,4.2,1.43,5.42,3.48,1,1.73,1.38,3.72,1.12,5.96-.29,2.58-1.3,4.59-3.01,6.04-1.54,1.32-3.36,1.87-5.47,1.63-2.41-.27-4.22-1.43-5.42-3.48-1-1.71-1.38-3.67-1.13-5.89.29-2.6,1.3-4.63,3.02-6.11,1.54-1.32,3.36-1.87,5.47-1.63Zm-.17,1.5c-1.83-.21-3.37.4-4.62,1.83-1.03,1.19-1.65,2.72-1.86,4.61-.24,2.12.14,3.92,1.15,5.38.91,1.33,2.15,2.09,3.73,2.27,1.81.21,3.34-.41,4.58-1.84,1.05-1.19,1.68-2.7,1.89-4.53.25-2.17-.12-3.99-1.11-5.45-.91-1.33-2.16-2.09-3.76-2.27Z"/>
    <path class="cls-1" d="m253.2,401.32l-9.28-.15-.25,14.94-1.65-.03.25-14.94-2.17-.04.02-1.4,2.17.04.04-2.45c.02-1.32.38-2.38,1.09-3.19.7-.8,1.6-1.2,2.7-1.18,1.07.02,2.08.37,3.03,1.06l-.61,1c-.86-.37-1.57-.57-2.13-.58-1.59-.03-2.4.94-2.43,2.91l-.04,2.45,9.28.15.04-2.45c.02-1.32.38-2.38,1.09-3.19.7-.8,1.6-1.2,2.7-1.18,1.07.02,2.08.37,3.03,1.06l-.61,1c-.86-.37-1.57-.57-2.13-.58-1.59-.03-2.4.94-2.43,2.91l-.04,2.45,3.71.06-.02,1.4-3.71-.06-.25,14.94-1.65-.03.25-14.94Z"/>
    <path class="cls-1" d="m279.06,406.79l-11.43,1.19c.25,1.98,1.09,3.51,2.52,4.59,1.32.95,2.9,1.33,4.73,1.14,1.56-.16,2.87-.73,3.94-1.71l.78,1.04c-1.27,1.29-2.98,2.05-5.12,2.27-2.44.25-4.49-.4-6.16-1.97-1.49-1.41-2.35-3.31-2.6-5.7-.26-2.53.22-4.72,1.47-6.56,1.14-1.66,2.65-2.59,4.54-2.79,2.25-.23,4.06.6,5.41,2.51,1.02,1.44,1.64,3.27,1.87,5.49l.05.5Zm-11.55-.25l9.65-1c-.25-1.98-.84-3.47-1.77-4.47-.93-1-2.11-1.43-3.55-1.28-1.35.14-2.43.84-3.23,2.09-.81,1.25-1.18,2.81-1.1,4.66Z"/>
    <path class="cls-1" d="m299.34,403.05l-11.26,2.28c.44,1.94,1.42,3.38,2.95,4.32,1.4.82,3.01,1.04,4.82.68,1.53-.31,2.79-1.01,3.76-2.08l.87.96c-1.14,1.41-2.77,2.32-4.88,2.75-2.4.49-4.51.03-6.32-1.37-1.61-1.26-2.66-3.07-3.14-5.43-.5-2.49-.23-4.72.83-6.67.98-1.76,2.39-2.84,4.25-3.21,2.22-.45,4.09.21,5.62,1.98,1.15,1.33,1.95,3.09,2.39,5.28l.1.49Zm-11.52.86l9.51-1.93c-.44-1.94-1.17-3.37-2.19-4.28-1.02-.91-2.24-1.22-3.66-.93-1.33.27-2.33,1.07-3.02,2.39-.68,1.33-.9,2.91-.65,4.74Z"/>
  </g>
</svg>